<svg width="1024" height="1024" viewBox="0 0 1024 1024" fill="none" xmlns="http://www.w3.org/2000/svg">
<rect x="4" y="4" width="1016" height="1016" rx="176" fill="white"/>
<rect x="4" y="4" width="1016" height="1016" rx="176" stroke="#D0D7DE" stroke-width="8"/>
<path d="M197.166 143.404C400.81 158.066 353.565 306.319 276.995 263.961C263.961 223.232 224.047 176.802 190.65 149.921L197.166 143.404ZM138.517 325.869C336.459 342.975 282.697 485.526 209.385 439.095C199.61 399.996 163.768 356.823 132 332.386L138.517 325.869ZM187.391 650.885C197.981 650.885 202.054 650.885 210.199 634.594C226.491 604.454 226.491 604.454 365.784 286.769L380.446 290.028C349.492 387.777 291.657 568.613 281.068 609.342C274.551 634.594 268.849 662.289 269.663 682.654C270.478 723.383 299.803 755.151 297.359 824.39C295.73 861.861 272.107 887.112 237.895 887.112C221.603 887.112 206.126 874.079 201.239 845.569C215.087 762.482 210.199 692.429 192.279 679.395C181.689 672.064 168.656 668.806 151.55 667.991V650.885C151.55 650.885 179.245 650.885 187.391 650.885ZM573.501 136.073L679.396 145.848C677.766 157.252 670.435 165.398 650.071 169.47V220.789H752.707L795.065 168.656C795.065 168.656 843.125 204.497 873.265 231.378C870.821 240.339 862.675 244.411 851.271 244.411H650.071V310.392H741.303L782.847 257.445C782.847 257.445 830.092 294.915 858.602 320.982C856.973 329.942 848.827 334.015 837.423 334.015H650.071V407.327H767.37L811.357 353.565C811.357 353.565 861.046 391.035 892 417.916C890.371 426.877 881.411 430.95 870.007 430.95H369.856L363.34 407.327H573.501V334.015H413.029L406.512 310.392H573.501V244.411H392.665L386.148 220.789H573.501V136.073ZM733.972 613.415H505.076V690.8H733.972V613.415ZM733.972 589.792V516.48H505.076V589.792H733.972ZM430.95 461.089L509.964 493.672H725.012L760.853 451.314L843.125 514.036C838.238 519.738 826.019 527.884 808.913 530.328V798.324C808.913 848.827 796.695 879.781 700.574 887.927C698.131 865.933 693.243 848.013 680.21 837.423C667.177 826.834 646.812 818.688 604.455 812.171V800.767C604.455 800.767 696.502 806.469 715.237 806.469C729.899 806.469 733.972 800.767 733.972 789.363V714.422H505.076V860.231C505.076 868.377 474.937 886.298 442.354 886.298H430.95V461.089Z" fill="black"/>
</svg>
