<svg width="1171" height="1123" viewBox="0 0 1171 1123" fill="none" xmlns="http://www.w3.org/2000/svg">
<g clip-path="url(#clip0_1326_11)">
<rect width="1024" height="1024" rx="180" fill="white"/>
<path d="M229.76 191.12L224 196.88C253.52 220.64 288.8 261.68 300.32 297.68C368 335.12 409.76 204.08 229.76 191.12ZM177.92 352.4L172.16 358.16C200.24 379.76 231.92 417.92 240.56 452.48C305.36 493.52 352.88 367.52 177.92 352.4ZM221.12 639.68C213.92 639.68 189.44 639.68 189.44 639.68V654.8C204.56 655.52 216.08 658.4 225.44 664.88C241.28 676.4 245.6 738.32 233.36 811.76C237.68 836.96 251.36 848.48 265.76 848.48C296 848.48 316.88 826.16 318.32 793.04C320.48 731.84 294.56 703.76 293.84 667.76C293.12 649.76 298.16 625.28 303.92 602.96C313.28 566.96 364.4 407.12 391.76 320.72L378.8 317.84C255.68 598.64 255.68 598.64 241.28 625.28C234.08 639.68 230.48 639.68 221.12 639.68ZM562.4 184.64V259.52H396.8L402.56 280.4H562.4V338.72H414.8L420.56 359.6H562.4V424.4H376.64L382.4 445.28H824.48C834.56 445.28 842.48 441.68 843.92 433.76C816.56 410 772.64 376.88 772.64 376.88L733.76 424.4H630.08V359.6H795.68C805.76 359.6 812.96 356 814.4 348.08C789.2 325.04 747.44 291.92 747.44 291.92L710.72 338.72H630.08V280.4H807.92C818 280.4 825.2 276.8 827.36 268.88C800.72 245.12 758.24 213.44 758.24 213.44L720.8 259.52H630.08V214.16C648.08 210.56 654.56 203.36 656 193.28L562.4 184.64ZM704.24 606.56V674.96H501.92V606.56H704.24ZM704.24 585.68H501.92V520.88H704.24V585.68ZM436.4 500.72V847.76H446.48C475.28 847.76 501.92 831.92 501.92 824.72V695.84H704.24V762.08C704.24 772.16 700.64 777.2 687.68 777.2C671.12 777.2 589.76 772.16 589.76 772.16V782.24C627.2 788 645.2 795.2 656.72 804.56C668.24 813.92 672.56 829.76 674.72 849.2C759.68 842 770.48 814.64 770.48 770V533.12C785.6 530.96 796.4 523.76 800.72 518.72L728 463.28L696.32 500.72H506.24L436.4 471.92V500.72Z" fill="black"/>
</g>
<rect x="4" y="4" width="1016" height="1016" rx="176" stroke="#CDD7E1" stroke-width="8"/>
<rect x="651" y="603" width="520" height="520" rx="260" fill="#0B6BCB"/>
<g clip-path="url(#clip1_1326_11)">
<path d="M861.5 921.5L803 863L861.5 804.5C867.35 798.65 867.35 789.35 861.5 783.5C855.65 777.65 846.35 777.65 840.5 783.5L771.65 852.35C765.8 858.2 765.8 867.65 771.65 873.5L840.5 942.5C846.35 948.35 855.65 948.35 861.5 942.5C867.35 936.65 867.35 927.35 861.5 921.5ZM960.5 921.5L1019 863L960.5 804.5C954.65 798.65 954.65 789.35 960.5 783.5C966.35 777.65 975.65 777.65 981.5 783.5L1050.35 852.35C1056.2 858.2 1056.2 867.65 1050.35 873.5L981.5 942.5C975.65 948.35 966.35 948.35 960.5 942.5C954.65 936.65 954.65 927.35 960.5 921.5Z" fill="white"/>
</g>
<defs>
<clipPath id="clip0_1326_11">
<rect width="1024" height="1024" rx="180" fill="white"/>
</clipPath>
<clipPath id="clip1_1326_11">
<rect width="360" height="360" fill="white" transform="translate(731 683)"/>
</clipPath>
</defs>
</svg>
